<svg width="427" height="116" viewBox="0 0 427 116" fill="none" xmlns="http://www.w3.org/2000/svg">
<path d="M305.812 103.704L296.596 85.656H300.436L307.732 100.12L314.26 85.656H317.844L309.396 103.704V115.352H305.812V103.704Z" fill="white"/>
<path d="M243.672 88.6H235.352V85.656H255.832V88.6H247.128V115.352H243.672V88.6Z" fill="white"/>
<path d="M176.156 112.536H182.044V88.472H176.54V85.656H191.26V88.472H185.372V112.536H191.516V115.352H176.156V112.536Z" fill="white"/>
<path d="M120.8 100.248L112.864 85.656H116.448L122.72 96.92L128.864 85.656H132.192L124.64 100.12L133.088 115.352H129.376L122.72 103.576L116.32 115.352H112.736L120.8 100.248Z" fill="white"/>
<path d="M369 76V0.47998H372.84V76H369ZM376.68 76V0.47998H388.2V76H376.68ZM392.04 76V0.47998H395.88V76H392.04ZM399.72 76V0.47998H411.24V76H399.72ZM422.76 76V0.47998H426.6V76H422.76Z" fill="white"/>
<path d="M307.5 76V0.47998H319.02V76H307.5ZM322.86 76V0.47998H334.38V76H322.86ZM338.22 76V0.47998H342.06V76H338.22ZM345.9 76V0.47998H349.74V76H345.9ZM361.26 76V0.47998H365.1V76H361.26Z" fill="white"/>
<path d="M246 76V0.47998H257.52V76H246ZM269.04 76V0.47998H272.88V76H269.04ZM276.72 76V0.47998H280.56V76H276.72ZM284.4 76V0.47998H288.24V76H284.4ZM292.08 76V0.47998H303.6V76H292.08Z" fill="white"/>
<path d="M184.5 76V0.47998H188.34V76H184.5ZM192.18 76V0.47998H203.7V76H192.18ZM207.54 76V0.47998H211.38V76H207.54ZM215.22 76V0.47998H226.74V76H215.22ZM238.26 76V0.47998H242.1V76H238.26Z" fill="white"/>
<path d="M123 76V0.47998H126.84V76H123ZM130.68 76V0.47998H142.2V76H130.68ZM146.04 76V0.47998H149.88V76H146.04ZM153.72 76V0.47998H165.24V76H153.72ZM176.76 76V0.47998H180.6V76H176.76Z" fill="white"/>
<path d="M61.5 76V0.47998H73.02V76H61.5ZM76.86 76V0.47998H80.7V76H76.86ZM84.54 76V0.47998H96.06V76H84.54ZM99.9 76V0.47998H103.74V76H99.9ZM115.26 76V0.47998H119.1V76H115.26Z" fill="white"/>
<path d="M0 76V0.47998H3.84V76H0ZM7.67999 76V0.47998H19.2V76H7.67999ZM23.04 76V0.47998H34.56V76H23.04ZM38.4 76V0.47998H42.24V76H38.4ZM53.76 76V0.47998H57.6V76H53.76Z" fill="white"/>
</svg>
